<?xml version="1.0" encoding="UTF-8"?><svg xmlns="http://www.w3.org/2000/svg" xmlns:xlink="http://www.w3.org/1999/xlink" height="384.4" preserveAspectRatio="xMidYMid meet" version="1.0" viewBox="7.3 7.8 384.4 384.4" width="384.4" zoomAndPan="magnify"><g><g id="change1_1"><path d="M199.5,392.2C93.5,392.2,7.3,306,7.3,200C7.3,94,93.5,7.8,199.5,7.8c106,0,192.2,86.2,192.2,192.2 C391.7,306,305.5,392.2,199.5,392.2z M199.5,19.2C99.8,19.2,18.7,100.3,18.7,200c0,99.7,81.1,180.8,180.8,180.8 c99.7,0,180.8-81.1,180.8-180.8C380.3,100.3,299.2,19.2,199.5,19.2z" fill="#231F20"/></g><g id="change1_2"><path d="M230.8,174.4c0,6.2-1.9,11.4-5.6,15.8c-3.7,4.3-9,7.3-15.8,8.9v0.4c8,1,14,3.4,18.1,7.3 c4.1,3.9,6.2,9.1,6.2,15.6c0,9.5-3.5,16.9-10.4,22.2c-6.9,5.3-16.8,8-29.6,8c-10.7,0-20.3-1.8-28.6-5.3v-17.8 c3.8,1.9,8.1,3.5,12.7,4.7s9.2,1.8,13.7,1.8c6.9,0,12-1.2,15.3-3.5c3.3-2.3,4.9-6.1,4.9-11.3c0-4.6-1.9-7.9-5.7-9.9 s-9.8-2.9-18.1-2.9h-7.5v-16h7.6c7.7,0,13.3-1,16.8-3c3.5-2,5.3-5.4,5.3-10.3c0-7.5-4.7-11.2-14.1-11.2c-3.2,0-6.6,0.5-9.9,1.6 c-3.4,1.1-7.1,3-11.2,5.6l-9.7-14.4c9-6.5,19.8-9.7,32.3-9.7c10.2,0,18.3,2.1,24.3,6.2C227.8,161.3,230.8,167,230.8,174.4z" fill="#231F20"/></g></g></svg>