<?xml version="1.0" encoding="UTF-8"?><svg xmlns="http://www.w3.org/2000/svg" xmlns:xlink="http://www.w3.org/1999/xlink" height="384.4" preserveAspectRatio="xMidYMid meet" version="1.0" viewBox="7.3 7.8 384.4 384.4" width="384.4" zoomAndPan="magnify"><g><g id="change1_1"><path d="M199.5,392.2C93.5,392.2,7.3,306,7.3,200C7.3,94,93.5,7.8,199.5,7.8c106,0,192.2,86.2,192.2,192.2 C391.7,306,305.5,392.2,199.5,392.2z M199.5,19.2C99.8,19.2,18.7,100.3,18.7,200c0,99.7,81.1,180.8,180.8,180.8 c99.7,0,180.8-81.1,180.8-180.8C380.3,100.3,299.2,19.2,199.5,19.2z" fill="#231F20"/></g><g id="change1_2"><path d="M236.9,230.7H225v20.5h-20.4v-20.5h-42.2v-14.5l43.4-63.9H225v62.2h11.9V230.7z M204.5,214.5v-16.8 c0-2.8,0.1-6.9,0.3-12.2c0.2-5.3,0.4-8.4,0.5-9.3h-0.5c-1.7,3.7-3.7,7.3-6,10.8l-18.1,27.4H204.5z" fill="#231F20"/></g></g></svg>