<?xml version="1.0" encoding="UTF-8"?><svg xmlns="http://www.w3.org/2000/svg" xmlns:xlink="http://www.w3.org/1999/xlink" height="384.4" preserveAspectRatio="xMidYMid meet" version="1.0" viewBox="7.3 7.8 384.4 384.4" width="384.4" zoomAndPan="magnify"><g><g id="change1_1"><path d="M199.5,392.2C93.5,392.2,7.3,306,7.3,200C7.3,94,93.5,7.8,199.5,7.8c106,0,192.2,86.2,192.2,192.2 C391.7,306,305.5,392.2,199.5,392.2z M199.5,19.2C99.8,19.2,18.7,100.3,18.7,200c0,99.7,81.1,180.8,180.8,180.8 c99.7,0,180.8-81.1,180.8-180.8C380.3,100.3,299.2,19.2,199.5,19.2z" fill="#231F20"/></g><g id="change1_2"><path d="M201.5,188c9.6,0,17.2,2.7,22.8,8.1c5.7,5.4,8.5,12.7,8.5,22.1c0,11.1-3.4,19.6-10.2,25.5 s-16.6,8.9-29.2,8.9c-11,0-19.9-1.8-26.7-5.3v-18.1c3.6,1.9,7.7,3.4,12.4,4.6c4.7,1.2,9.2,1.8,13.5,1.8c12.8,0,19.1-5.2,19.1-15.7 c0-10-6.6-15-19.8-15c-2.4,0-5,0.2-7.9,0.7c-2.9,0.5-5.2,1-7,1.5l-8.3-4.5l3.7-50.4h53.7V170h-35.3l-1.8,19.4l2.4-0.5 C194,188.3,197.4,188,201.5,188z" fill="#231F20"/></g></g></svg>