<?xml version="1.0" encoding="UTF-8"?><!-- Generator: Adobe Illustrator 21.0.2, SVG Export Plug-In . SVG Version: 6.00 Build 0)  --><svg xmlns="http://www.w3.org/2000/svg" enable-background="new 0 0 400 400" id="Layer_1" version="1.1" viewBox="0 0 400 400" x="0px" xml:space="preserve" y="0px">
<g>
	<g id="change1_1">
		<path d="m199.5 392.2c-106 0-192.2-86.2-192.2-192.2s86.2-192.2 192.2-192.2 192.2 86.2 192.2 192.2-86.2 192.2-192.2 192.2zm0-373c-99.7 0-180.8 81.1-180.8 180.8s81.1 180.8 180.8 180.8 180.8-81.1 180.8-180.8-81.1-180.8-180.8-180.8z" fill="#231F20"/>
	</g>
	<g id="change1_2">
		<path d="m164.8 209.2c0-19.6 4.1-34.1 12.4-43.7s20.7-14.3 37.2-14.3c5.6 0 10.1 0.3 13.3 1v16.7c-4-0.9-8-1.4-11.9-1.4-7.2 0-13 1.1-17.6 3.2-4.5 2.2-7.9 5.4-10.2 9.6s-3.6 10.3-4 18.1h0.9c4.5-7.7 11.6-11.5 21.4-11.5 8.8 0 15.8 2.8 20.8 8.3s7.5 13.2 7.5 23c0 10.6-3 18.9-8.9 25.1s-14.2 9.2-24.8 9.2c-7.3 0-13.7-1.7-19.1-5.1s-9.6-8.3-12.6-14.8c-2.9-6.4-4.4-14.2-4.4-23.4zm35.8 26.7c4.5 0 7.9-1.5 10.3-4.5s3.6-7.3 3.6-12.8c0-4.8-1.1-8.6-3.3-11.4s-5.6-4.2-10.1-4.2c-4.2 0-7.9 1.4-10.9 4.1-3 2.8-4.5 6-4.5 9.6 0 5.4 1.4 9.9 4.2 13.6 2.7 3.7 6.3 5.6 10.7 5.6z" fill="#231F20"/>
	</g>
</g>
</svg>